<svg xmlns="http://www.w3.org/2000/svg" viewBox="0 0 256 256" width="256" height="256">
  <defs>
    <linearGradient id="g" x1="0" x2="1" y1="0" y2="1">
      <stop offset="0%" stop-color="#7c3aed"/>
      <stop offset="50%" stop-color="#ec4899"/>
      <stop offset="100%" stop-color="#f59e0b"/>
    </linearGradient>
  </defs>
  <rect width="256" height="256" rx="56" fill="url(#g)"/>
  <g fill="#ffffff">
    <path d="M168 88c-12.8-12.8-28.6-19.2-47.2-19.2-18.6 0-34.4 6.4-47.2 19.2C60.8 100.8 54.4 116.6 54.4 135.2c0 18.6 6.4 34.4 19.2 47.2 12.8 12.8 28.6 19.2 47.2 19.2 15.7 0 29.5-4.8 41.6-14.4l-14.5-18.1c-7.8 6-17.2 9-28.1 9-12.9 0-23.9-4.5-33-13.6-9.1-9.1-13.6-20.1-13.6-33s4.5-23.9 13.6-33c9.1-9.1 20.1-13.6 33-13.6 10.9 0 20.3 3 28.1 9l14.5-18.1z"/>
    <circle cx="180" cy="92" r="14"/>
  </g>
</svg>
